<svg width="32" height="32" viewBox="0 0 32 32" fill="none" xmlns="http://www.w3.org/2000/svg">
<path fill-rule="evenodd" clip-rule="evenodd" d="M16 0C7.164 0 0 7.164 0 16C0 24.836 7.164 32 16 32C24.836 32 32 24.836 32 16C32 7.164 24.836 0 16 0ZM16 2.66667C23.352 2.66667 29.3333 8.648 29.3333 16C29.3333 23.352 23.352 29.3333 16 29.3333C8.648 29.3333 2.66667 23.352 2.66667 16C2.66667 8.648 8.648 2.66667 16 2.66667ZM19.128 16.072C19.128 17.8027 17.7213 19.2107 15.9893 19.2107C14.26 19.2107 12.852 17.8027 12.8507 16.072C12.8507 15.132 13.268 14.2893 13.924 13.7133C14.1533 13.512 14.4133 13.3427 14.6947 13.2147C15.0893 13.0347 15.5267 12.9347 15.9893 12.9347C16.4507 12.9347 16.888 13.0347 17.284 13.2147C17.5667 13.3427 17.8253 13.512 18.0573 13.7133C18.712 14.2893 19.128 15.1333 19.128 16.072ZM16 13.7533C17.2813 13.7533 18.3173 14.7907 18.3173 16.072C18.3173 17.3533 17.2813 18.392 16 18.392C14.7187 18.392 13.6827 17.3533 13.6827 16.072C13.6827 14.792 14.7187 13.7533 16 13.7533ZM24 14H19.4813C19.844 14.6093 20.0627 15.3133 20.0627 16.072C20.0627 18.3213 18.2387 20.1453 15.9893 20.1453C13.7387 20.1453 11.916 18.3227 11.916 16.072C11.916 15.3133 12.136 14.6093 12.4973 14H8V20.852C8 22.5907 9.45067 24 11.1907 24H20.852C22.5893 24 24 22.5907 24 20.852V14ZM20.852 8H12.6667V11.3333H12V8H11.3333V11.3333H10.6667V8.052C10.4347 8.08933 10.212 8.14667 10 8.23067V11.3333H9.33333V8.59867C8.53067 9.16933 8 10.096 8 11.148V13.3333H12.9813C13.76 12.4773 14.8467 12 15.9893 12C17.136 12 18.2227 12.4827 18.996 13.3333H24V11.1467C24 9.40933 22.5893 8 20.852 8ZM22.1693 12C22.4453 12 22.6667 11.78 22.6667 11.5093V9.82267C22.6667 9.55333 22.4453 9.33333 22.1693 9.33333H20.496C20.2227 9.33333 20 9.55333 20 9.82267V11.5093C20 11.78 20.2227 12 20.496 12H22.1693Z" fill="white"/>
</svg>
